<svg xmlns="http://www.w3.org/2000/svg" xmlns:xlink="http://www.w3.org/1999/xlink" id="Layer_1" x="0px" y="0px" viewBox="0 0 387.9 40.3" style="enable-background:new 0 0 387.9 40.3;" xml:space="preserve">
<style type="text/css">
	.st0{fill:#414042;}
	.st1{fill:#14A3E0;}
	.st2{opacity:0.6;fill:#14A3E0;enable-background:new    ;}
	.st3{fill:#007096;}
	.st4{opacity:0.15;fill:#221F1F;enable-background:new    ;}
	.st5{opacity:0.1;fill:#221F1F;enable-background:new    ;}
	.st6{opacity:0.2;fill:#221F1F;enable-background:new    ;}
</style>
<g>
	<g id="Layer_1_1_">
		<path class="st0" d="M53.7,22.2L53.7,22.2c0-10,7.4-18.3,17.8-18.3c4.6-0.1,9.1,1.5,12.6,4.6c0.5,0.4,0.8,1,0.8,1.6    c0,1.1-0.9,2-2,2c-0.5,0-0.9-0.2-1.3-0.5c-2.7-2.6-6.3-4-10.1-4c-7.8,0-13.6,6.3-13.6,14.4v0.1c0,8.1,5.9,14.5,13.6,14.5    c3.9,0,7.7-1.5,10.4-4.4c0.3-0.3,0.8-0.5,1.3-0.5c1,0.1,1.9,0.9,1.9,1.9c0,0.5-0.2,1-0.7,1.4c-3.5,3.4-8.1,5.3-13,5.2    C61.2,40.3,53.7,32.3,53.7,22.2z"></path>
		<path class="st0" d="M89,32.4L89,32.4c0-5.4,4.4-8.2,10.8-8.2c2.6,0,5.2,0.3,7.8,1.1v-0.9c0-4.5-2.8-6.9-7.5-6.9    c-2.3,0-4.5,0.5-6.5,1.4C93.2,19,93,19,92.8,19c-0.9,0-1.6-0.7-1.7-1.6c0-0.7,0.4-1.3,1-1.5c2.6-1.2,5.4-1.7,8.2-1.7    c3.6,0,6.3,0.9,8.1,2.8s2.6,4.1,2.6,7.3v13.8c0,1-0.7,1.8-1.7,1.8c0,0-0.1,0-0.1,0c-1,0-1.8-0.7-1.8-1.7c0,0,0-0.1,0-0.1v-2.3    c-2.2,2.8-5.6,4.4-9.1,4.3C93.7,40.2,89,37.5,89,32.4z M107.5,30.4V28c-2.4-0.7-4.9-1.1-7.4-1.1c-4.7,0-7.3,2-7.3,5.2v0.1    c0,3.2,2.9,5,6.3,5C103.7,37.3,107.5,34.4,107.5,30.4z"></path>
		<path class="st0" d="M118.3,16.2c-0.1-1,0.7-1.9,1.7-2c1-0.1,1.9,0.7,2,1.7c0,0.1,0,0.2,0,0.3v4.7c1.9-4.2,5.5-6.7,8.7-6.7    c1,0,1.8,0.8,1.9,1.8c0,0,0,0.1,0,0.1c0,1-0.7,1.8-1.7,1.9c-4.9,0.6-8.9,4.2-8.9,11.5V38c0.1,1-0.7,1.9-1.7,2    c-1,0.1-1.9-0.7-2-1.7c0-0.1,0-0.2,0-0.3V16.2z"></path>
		<path class="st0" d="M146.3,40.3c-6.9,0-12.6-5.3-12.6-13.1v-0.1c0-7.3,5.1-13.1,12.1-13.1c7.4,0,11.7,6.1,11.7,12.8    c0,1-0.8,1.8-1.7,1.8c0,0,0,0,0,0h-18.2c0.5,5.5,4.4,8.5,8.9,8.5c2.7,0,5.3-1,7.2-2.9c0.3-0.3,0.7-0.4,1.1-0.4    c0.9,0,1.6,0.7,1.6,1.6c0,0,0,0,0,0c0,0.5-0.2,0.9-0.6,1.2C153.3,39,149.8,40.4,146.3,40.3z M153.7,25.7c-0.4-4.6-3-8.6-8-8.6    c-4.4,0-7.7,3.7-8.2,8.6H153.7z"></path>
		<path class="st0" d="M171.3,6.5c0-1.1,0.9-2,2-2h21.7c1,0,1.8,0.8,1.8,1.8c0,0,0,0,0,0c0,1-0.8,1.8-1.8,1.9h-19.8v14.3h17.5    c1-0.1,1.9,0.7,1.9,1.7c0.1,1-0.7,1.9-1.7,1.9c-0.1,0-0.2,0-0.3,0h-17.5v11.8c0,1.1-0.9,2-2,2s-2-0.9-2-2L171.3,6.5z"></path>
		<path class="st0" d="M222.4,38c0.1,1-0.7,1.9-1.7,2c-1,0.1-1.9-0.7-2-1.7c0-0.1,0-0.2,0-0.3v-2.7c-1.7,3.1-5.1,5-8.6,4.9    c-6.1,0-9.6-4.1-9.6-10.1v-14c0-1,0.7-1.9,1.8-1.9c0,0,0.1,0,0.1,0c1,0,1.9,0.9,1.9,1.9v13.1c0,4.7,2.5,7.6,7,7.6    c4.3,0,7.5-3.2,7.5-7.9V16.2c0-1,0.7-1.9,1.8-1.9c0,0,0.1,0,0.1,0c1,0,1.9,0.8,1.9,1.9c0,0,0,0,0,0L222.4,38z"></path>
		<path class="st0" d="M228.8,37c-0.4-0.3-0.7-0.8-0.7-1.4c0-0.9,0.8-1.6,1.7-1.6c0.3,0,0.7,0.1,0.9,0.3c2.3,1.7,5.1,2.6,8,2.7    c3,0,5.2-1.6,5.2-4v-0.1c0-2.5-3-3.5-6.3-4.4c-3.9-1.1-8.3-2.5-8.3-7.1v-0.1c0-4.3,3.6-7.2,8.6-7.2c2.8,0.1,5.5,0.8,8,2.2    c0.6,0.3,0.9,0.9,0.9,1.6c0,0.9-0.8,1.6-1.7,1.6c0,0,0,0,0,0c-0.3,0-0.6-0.1-0.8-0.2c-2-1.2-4.2-1.9-6.6-2c-3,0-4.9,1.6-4.9,3.7    v0.1c0,2.4,3.1,3.3,6.5,4.3c3.9,1.2,8.1,2.7,8.1,7.2v0.1c0,4.8-4,7.5-9,7.5C234.9,40.1,231.6,39,228.8,37z"></path>
		<path class="st0" d="M254,16.2c0-1,0.8-1.9,1.9-1.9c1,0,1.9,0.8,1.9,1.8c0,0,0,0,0,0.1V38c0,1-0.7,1.9-1.8,1.9c0,0-0.1,0-0.1,0    c-1,0-1.9-0.8-1.9-1.8c0,0,0,0,0-0.1V16.2z"></path>
		<path class="st0" d="M264.2,27.2L264.2,27.2c0.2-7.3,6.2-13.1,13.4-12.9c7,0.2,12.6,5.7,12.8,12.7v0.1c0,7.2-5.8,13.1-13,13.1    c-0.1,0-0.1,0-0.2,0c-7.1,0.1-13-5.6-13-12.7C264.2,27.4,264.2,27.3,264.2,27.2z M286.6,27.2L286.6,27.2c0.2-5.4-4-9.8-9.2-9.9    c0,0-0.1,0-0.1,0c-5.5,0-9.2,4.4-9.2,9.7v0.1c0,5.4,4,9.8,9.3,9.8S286.6,32.5,286.6,27.2L286.6,27.2z"></path>
		<path class="st0" d="M296.5,16.2c0-1,0.8-1.9,1.8-1.9c1,0,1.9,0.8,1.9,1.8c0,0,0,0,0,0.1v2.7c1.7-3.1,5.1-5,8.6-4.9    c6.1,0,9.6,4.1,9.6,10.1v14c0.1,1-0.7,1.9-1.7,2c-1,0.1-1.9-0.7-2-1.7c0-0.1,0-0.2,0-0.3v-13c0-4.7-2.5-7.6-7-7.6    c-4.5,0-7.5,3.2-7.5,7.9V38c0,1-0.7,1.9-1.8,1.9c0,0-0.1,0-0.1,0c-1,0-1.9-0.8-1.9-1.8c0,0,0,0,0-0.1L296.5,16.2z"></path>
		<path class="st0" d="M366.4,37l8.2-10.1l-7.7-9.5c-0.4-0.4-0.6-0.9-0.6-1.4c0-0.9,0.7-1.7,1.6-1.8c0,0,0.1,0,0.1,0    c0.7,0,1.3,0.3,1.7,0.9l7.3,9.2l7.2-9.1c0.4-0.5,1-0.9,1.6-0.9c0.9,0,1.7,0.7,1.7,1.6c0,0,0,0.1,0,0.1c0,0.4-0.2,0.9-0.5,1.2    l-7.8,9.6l8.2,10c0.3,0.4,0.5,0.9,0.5,1.4c0,0.9-0.7,1.7-1.7,1.8c0,0-0.1,0-0.1,0c-0.7,0-1.3-0.3-1.6-0.9l-7.7-9.7l-7.6,9.6    c-0.4,0.5-1,0.9-1.6,0.9c-0.9,0-1.7-0.7-1.7-1.6c0,0,0,0,0,0C365.9,37.8,366.1,37.3,366.4,37z"></path>
		<path class="st0" d="M332.3,6.5c0-1.1,0.9-2,2-2h13.1c4.3,0,7.8,1.3,10,3.5c1.8,1.9,2.8,4.5,2.7,7.1v0.1c0,5.8-3.9,9.1-9.4,10.2    l8.7,11.2c0.4,0.4,0.6,0.9,0.7,1.5c0,1.1-0.9,2-2,2c-0.8,0-1.4-0.4-1.9-1l-9.8-12.8h-10.1v11.7c0,1.1-0.9,2-2,2c-1.1,0-2-0.9-2-2    L332.3,6.5z M347.1,22.6c5.3,0,9-2.7,9-7.2v-0.1c0-4.3-3.3-7.1-9-7.1h-10.8v14.4H347.1z"></path>
		<circle class="st0" cx="255.9" cy="6.2" r="2.2"></circle>
		<path class="st1" d="M13.3,0c7.3,0,13.3,5.9,13.3,13.3s-5.9,13.3-13.3,13.3S0,20.6,0,13.3l0,0V0H13.3z"></path>
		<circle class="st1" cx="35.5" cy="35.5" r="4.4"></circle>
		<path class="st2" d="M15.5,39.9c6.1,0,11-4.9,11-11s-4.9-11-11-11s-11,4.9-11,11l0,0v11H15.5z"></path>
		<path class="st3" d="M39.9,15.5c0,6.1-4.9,11-11,11s-11-4.9-11-11s4.9-11,11-11h11V15.5z"></path>
		<path class="st4" d="M21.5,23.6c-1.6-1.4-2.7-3.3-3.3-5.4c-5.1-1.4-10.4,1.1-12.6,5.8C10.4,27.5,16.9,27.3,21.5,23.6z"></path>
		<path class="st5" d="M21.5,23.6c1.3,1.2,2.9,2,4.6,2.5c-0.4-1.7-1.3-3.3-2.5-4.6C23,22.3,22.3,23,21.5,23.6z"></path>
		<path class="st6" d="M18.2,18.2c0.5,2.1,1.7,4,3.3,5.4c0.8-0.6,1.5-1.3,2.1-2.1C22.2,19.9,20.3,18.8,18.2,18.2z"></path>
		<path class="st5" d="M17.9,15.5c0,0.9,0.1,1.9,0.4,2.8c2.1,0.5,3.9,1.7,5.4,3.2c3.7-4.6,3.9-11.1,0.4-15.9    C20.3,7.5,17.9,11.3,17.9,15.5z"></path>
	</g>
</g>
</svg>